<svg width="212" height="208" viewBox="0 0 212 208" fill="none" xmlns="http://www.w3.org/2000/svg">
<g clip-path="url(#clip0_76_2879)">
<path d="M97.144 43.335L113.722 51.8692C112.933 52.6034 112.277 53.29 111.487 54.0243L94.9086 45.4901C95.5649 44.8035 96.3545 44.0692 97.144 43.335Z" fill="#FED311"/>
<path d="M94.9086 45.4901L111.487 54.0243C110.831 54.7109 110.127 55.2639 109.47 55.9505L92.892 47.4163C93.5483 46.7297 94.2523 46.1767 94.9086 45.4901Z" fill="#FED411"/>
<path d="M92.8919 47.4163L109.47 55.9505C108.814 56.6371 108.158 57.3237 107.501 58.0103L90.923 49.4761C91.446 48.8372 92.1023 48.1506 92.8919 47.4163Z" fill="#FED511"/>
<path d="M90.8375 49.6573L107.416 58.1915C106.76 58.8781 106.018 59.7459 105.362 60.4325L88.7831 51.8984C89.5249 51.0306 90.1812 50.3439 90.8375 49.6573Z" fill="#FED611"/>
<path d="M88.7831 51.8984L105.362 60.4325C104.705 61.1191 104.097 61.9393 103.44 62.6259L86.862 54.0917C87.4705 53.2716 88.1268 52.585 88.7831 51.8984Z" fill="#FED711"/>
<path d="M86.9952 54.0441L103.574 62.5783C102.917 63.2649 102.309 64.085 101.7 64.9052L85.1218 56.371C85.6826 55.4173 86.3389 54.7307 86.9952 54.0441Z" fill="#FED811"/>
<path d="M85.0741 56.2375L101.653 64.7716C100.996 65.4582 100.521 66.2307 99.8647 66.9173L83.2862 58.3832C83.9425 57.6966 84.4178 56.9241 85.0741 56.2375Z" fill="#FED911"/>
<path d="M83.2862 58.3832L99.8647 66.9173C99.2562 67.7375 98.7331 68.3765 98.1246 69.1966L81.5461 60.6625C82.1546 59.8423 82.8109 59.1557 83.2862 58.3832Z" fill="#FEDA11"/>
<path d="M81.6793 60.6148L98.2578 69.149C97.7348 69.7879 97.2595 70.5605 96.6509 71.3806L80.0725 62.8465C80.5477 62.0739 81.0708 61.435 81.6793 60.6148Z" fill="#FEDB11"/>
<path d="M80.0724 62.8465L96.6509 71.3806C96.1756 72.1532 95.6526 72.7921 95.044 73.6123L78.4655 65.0781C78.9408 64.3056 79.5494 63.4854 80.0724 62.8465Z" fill="#FEDC11"/>
<path d="M78.4656 65.0781L95.0441 73.6123C94.5688 74.3848 94.0458 75.0238 93.5705 75.7963L76.992 67.2621C77.4673 66.4896 77.9426 65.7171 78.4656 65.0781Z" fill="#FEDD11"/>
<path d="M76.992 67.2621L93.5705 75.7963C93.0952 76.5688 92.6199 77.3413 92.1446 78.1138L75.5661 69.5797C75.9937 68.6736 76.5167 68.0346 76.992 67.2621Z" fill="#FEDE12"/>
<path d="M75.3851 69.4937L91.9636 78.0279C91.4883 78.8004 90.8798 79.6206 90.4045 80.3931L73.826 71.859C74.4823 71.1724 74.9099 70.2663 75.3851 69.4937Z" fill="#FEDF12"/>
<path d="M74.0071 71.9449L90.5856 80.479C90.1103 81.2516 89.5495 82.2053 89.0742 82.9778L72.4957 74.4436C72.9233 73.5375 73.3985 72.765 74.0071 71.9449Z" fill="#FEE012"/>
<path d="M72.3625 74.4913L88.941 83.0255C88.3802 83.9792 87.8194 84.9329 87.2586 85.8867L70.6801 77.3525C71.3742 76.3511 71.935 75.3974 72.3625 74.4913Z" fill="#FEE112"/>
<path d="M70.8134 77.3049L87.3918 85.8391C86.8311 86.7928 86.1848 87.9277 85.6717 89.015L69.0933 80.4809C69.6063 79.3936 70.1193 78.3063 70.8134 77.3049Z" fill="#FEE212"/>
<path d="M69.0455 80.3473L85.624 88.8815C84.8067 90.3789 83.9894 91.8763 83.3054 93.326L66.7269 84.7918C67.4109 83.3421 68.2282 81.8447 69.0455 80.3473Z" fill="#FEE312"/>
<path d="M66.5936 84.8395L83.1721 93.3737C82.9155 93.9173 82.5258 94.5086 82.2693 95.0523C79.9984 99.6304 77.994 104.113 76.304 108.634L59.7255 100.1C61.4156 95.579 63.4199 91.0962 65.6908 86.5181C66.1283 86.0604 66.3848 85.5167 66.5936 84.8395Z" fill="#FEE83C"/>
<path d="M59.7733 100.234L76.3518 108.768C75.7155 110.351 75.0792 111.934 74.624 113.604L58.0455 105.069C58.5007 103.4 59.137 101.817 59.7733 100.234Z" fill="#FEE312"/>
<path d="M57.9976 104.936L74.5761 113.47C74.1109 114.691 73.7789 115.864 73.3136 117.085L56.7351 108.551C57.1149 107.511 57.5324 106.157 57.9976 104.936Z" fill="#FEE212"/>
<path d="M56.7829 108.684L73.3614 117.219C72.9816 118.258 72.6496 119.432 72.4031 120.424L55.8246 111.889C56.0234 110.764 56.4032 109.724 56.7829 108.684Z" fill="#FEE112"/>
<path d="M55.7769 111.756L72.3553 120.29C72.1088 121.282 71.7291 122.322 71.4826 123.314L54.9041 114.779C55.1983 113.921 55.3971 112.795 55.7769 111.756Z" fill="#FEE012"/>
<path d="M54.8186 114.961L71.3971 123.495C71.1506 124.487 70.9041 125.479 70.6099 126.337L54.0314 117.803C54.2779 116.811 54.5244 115.819 54.8186 114.961Z" fill="#FEDF12"/>
<path d="M54.0313 117.803L70.6098 126.337C70.3633 127.329 70.1168 128.321 69.9558 129.132L53.3773 120.598C53.6716 119.739 53.7848 118.795 54.0313 117.803Z" fill="#FEDE12"/>
<path d="M54.0312 117.803L70.6097 126.337C70.3632 127.329 70.1167 128.321 69.9557 129.132L53.3772 120.598C53.6715 119.74 53.7847 118.795 54.0312 117.803Z" fill="#FEDE12"/>
<path d="M53.3773 120.598L69.9557 129.132C69.7092 130.124 69.596 131.068 69.3495 132.061L52.771 123.526C53.0175 122.534 53.1308 121.59 53.3773 120.598Z" fill="#FEDD11"/>
<path d="M52.771 123.526L69.3495 132.061C69.103 133.053 68.9897 133.997 68.8765 134.941L52.298 126.407C52.4112 125.463 52.5245 124.518 52.771 123.526Z" fill="#FEDC11"/>
<path d="M52.2981 126.407L68.8766 134.941C68.7633 135.886 68.5168 136.878 68.4036 137.822L51.8251 129.288C51.9383 128.343 52.0516 127.399 52.2981 126.407Z" fill="#FEDB11"/>
<path d="M51.8251 129.288L68.4036 137.822C68.2903 138.766 68.1771 139.711 68.0639 140.655L51.4854 132.121C51.4654 131.224 51.5786 130.28 51.8251 129.288Z" fill="#FEDA11"/>
<path d="M51.3521 132.169L67.9306 140.703C67.8173 141.647 67.7041 142.591 67.5908 143.536L51.0124 135.002C51.1256 134.057 51.2388 133.113 51.3521 132.169Z" fill="#FED911"/>
<path d="M51.1456 134.954L67.7241 143.488C67.6964 144.251 67.5831 145.196 67.5554 145.959L50.9769 137.425C51.0046 136.661 51.0324 135.898 51.1456 134.954Z" fill="#FED811"/>
<path d="M50.9769 137.425L67.5554 145.959C67.5754 146.855 67.4144 147.666 67.4344 148.563L50.856 140.029C50.8359 139.132 50.8637 138.369 50.9769 137.425Z" fill="#FED711"/>
<path d="M50.8559 140.029L67.4344 148.563C67.3689 149.641 67.389 150.538 67.4567 151.568L50.8783 143.034C50.8105 142.003 50.7427 140.973 50.8559 140.029Z" fill="#FED611"/>
<path d="M50.8783 143.034L67.4568 151.568C67.4768 152.465 67.5446 153.495 67.5646 154.392L50.9861 145.857C50.8329 145.008 50.7651 143.978 50.8783 143.034Z" fill="#FED511"/>
<path d="M50.9861 145.857L67.5646 154.392C67.5846 155.288 67.7379 156.137 67.8057 157.168L51.2272 148.633C51.0262 147.651 51.0062 146.754 50.9861 145.857Z" fill="#FED411"/>
<path d="M51.2273 148.633L67.8057 157.168C67.959 158.017 67.9791 158.913 68.1323 159.762L51.5539 151.228C51.4006 150.379 51.2473 149.53 51.2273 148.633Z" fill="#FED311"/>
<path d="M51.5538 151.228L68.1323 159.762C68.2856 160.612 68.4389 161.461 68.5922 162.31L52.0137 153.775C51.8604 152.926 51.7071 152.077 51.5538 151.228Z" fill="#FED211"/>
<path d="M52.0992 153.594L68.6777 162.128C68.831 162.978 69.1175 163.779 69.4041 164.58L52.8256 156.046C52.539 155.245 52.2525 154.443 52.0992 153.594Z" fill="#FED110"/>
<path d="M52.6924 156.094L69.2709 164.628C69.5574 165.429 69.844 166.231 70.0828 166.899L53.5043 158.364C53.2655 157.697 52.9789 156.895 52.6924 156.094Z" fill="#FED010"/>
<path d="M53.5043 158.364L70.0827 166.899C70.3693 167.7 70.7891 168.454 71.2089 169.208L54.6305 160.673C54.2106 159.92 53.9241 159.118 53.5043 158.364Z" fill="#FECF10"/>
<path d="M54.6304 160.673L71.2088 169.208C71.6287 169.961 72.0485 170.715 72.6016 171.421L56.0231 162.887C55.47 162.181 55.0502 161.427 54.6304 160.673Z" fill="#FECE10"/>
<path d="M56.0231 162.887L72.6015 171.421C73.2024 172.261 73.7555 172.967 74.4418 173.625L57.8633 165.091C57.177 164.433 56.4906 163.774 56.0231 162.887Z" fill="#FECD10"/>
<path d="M57.7301 165.139L74.3086 173.673C75.0427 174.465 75.91 175.21 76.9107 175.906L60.3322 167.372C59.3316 166.675 58.4642 165.931 57.7301 165.139Z" fill="#FECC10"/>
<path d="M60.3322 167.372L76.9106 175.906C77.5015 176.298 77.9113 176.603 78.5876 176.813L62.0091 168.279C61.466 168.021 60.8752 167.63 60.3322 167.372Z" fill="#FECB10"/>
<path d="M133.002 30.9657L149.58 39.4999C149.218 39.328 148.675 39.0703 148.313 38.8984C144.426 37.2754 139.903 37.2356 135.01 38.6838L118.431 30.1496C123.324 28.7014 127.848 28.7412 131.735 30.3643C132.097 30.5361 132.592 30.6603 133.002 30.9657Z" fill="#FECB10"/>
<path d="M118.431 30.1496L135.01 38.6838C133.629 39.0267 132.164 39.5509 130.745 40.2086L114.167 31.6744C115.633 31.1503 117.099 30.6261 118.431 30.1496Z" fill="#FECC10"/>
<path d="M114.167 31.6744L130.745 40.2086C129.594 40.771 128.442 41.3334 127.291 41.8958L110.712 33.3616C111.864 32.7992 113.015 32.2368 114.167 31.6744Z" fill="#FECD10"/>
<path d="M110.712 33.3616L127.291 41.8958C126.272 42.4106 125.302 43.0589 124.198 43.7549L107.619 35.2207C108.723 34.5247 109.742 34.01 110.712 33.3616Z" fill="#FECE10"/>
<path d="M107.753 35.1731L124.331 43.7072C123.361 44.3556 122.523 44.9562 121.553 45.6046L104.974 37.0704C105.811 36.4697 106.782 35.8214 107.753 35.1731Z" fill="#FECF10"/>
<path d="M104.841 37.1181L121.419 45.6522C120.582 46.2529 119.611 46.9012 118.689 47.6831L102.11 39.149C103.033 38.3671 104.004 37.7187 104.841 37.1181Z" fill="#FED010"/>
<path d="M102.243 39.1013L118.822 47.6355C117.985 48.2362 117.062 49.0181 116.272 49.7523L99.6937 41.2181C100.483 40.4839 101.273 39.7496 102.243 39.1013Z" fill="#FED110"/>
<path d="M99.5605 41.2658L116.139 49.8C115.349 50.5342 114.56 51.2685 113.637 52.0504L97.0585 43.5162C97.9336 42.6007 98.7231 41.8665 99.5605 41.2658Z" fill="#FED211"/>
<path d="M97.144 43.335L113.722 51.8692C112.933 52.6034 112.277 53.29 111.487 54.0243L94.9086 45.4901C95.5649 44.8035 96.3545 44.0692 97.144 43.335Z" fill="#FED311"/>
<path d="M133.002 30.9657C118.572 28.4421 95.0742 48.8957 77.4533 79.902C57.3329 115.267 48.941 156.531 63.2663 168.432C79.5552 182.041 113.992 150.144 134.128 103.475C151.293 64.0454 149.002 33.6807 133.002 30.9657Z" fill="#F1B400"/>
<path d="M142.314 12.8728L158.892 21.407C159.617 21.7507 160.255 22.2756 160.979 22.6193L144.401 14.0851C143.677 13.7414 143.086 13.3501 142.314 12.8728Z" fill="#FECB10"/>
<path d="M144.315 14.2663L160.894 22.8005C162.075 23.5831 163.171 24.547 164.134 25.5585L147.556 17.0243C146.593 16.0128 145.497 15.049 144.315 14.2663Z" fill="#FECC10"/>
<path d="M147.689 16.9767L164.268 25.5109C165.05 26.4365 165.831 27.3621 166.48 28.3353L149.902 19.8011C149.253 18.8279 148.471 17.9023 147.689 16.9767Z" fill="#FECD10"/>
<path d="M149.901 19.8011L166.48 28.3353C167.081 29.175 167.596 30.1959 168.245 31.1692L151.666 22.635C151.018 21.6617 150.502 20.6408 149.901 19.8011Z" fill="#FECE10"/>
<path d="M151.533 22.6826L168.111 31.2168C168.579 32.1041 169.094 33.125 169.429 34.06L152.85 25.5258C152.468 24.4573 152.001 23.5699 151.533 22.6826Z" fill="#FECF10"/>
<path d="M152.85 25.5258L169.429 34.06C169.763 34.995 170.097 35.93 170.479 36.9985L153.901 28.4644C153.652 27.3482 153.318 26.4132 152.85 25.5258Z" fill="#FED010"/>
<path d="M153.901 28.4644L170.479 36.9985C170.814 37.9335 171.062 39.0497 171.263 40.0324L154.685 31.4982C154.569 30.3343 154.235 29.3993 153.901 28.4644Z" fill="#FED110"/>
<path d="M154.818 31.4505L171.397 39.9847C171.598 40.9673 171.847 42.0835 172.048 43.0662L155.469 34.532C155.268 33.5494 155.019 32.4332 154.818 31.4505Z" fill="#FED211"/>
<path d="M155.469 34.532L172.048 43.0662C172.249 44.0488 172.364 45.2126 172.48 46.3765L155.901 37.8423C155.786 36.6785 155.585 35.6958 155.469 34.532Z" fill="#FED311"/>
<path d="M155.901 37.8423L172.48 46.3765C172.595 47.5403 172.711 48.7042 172.779 49.7345L156.2 41.2003C156.132 40.17 156.017 39.0062 155.901 37.8423Z" fill="#FED411"/>
<path d="M156.248 41.3339L172.826 49.868C172.942 51.0319 172.924 52.2434 172.906 53.4549L156.328 44.9207C156.346 43.7092 156.363 42.4977 156.248 41.3339Z" fill="#FED511"/>
<path d="M156.328 44.9207L172.906 53.4549C172.889 54.6664 172.919 56.0114 172.901 57.2229L156.323 48.6887C156.474 47.4296 156.444 46.0845 156.328 44.9207Z" fill="#FED611"/>
<path d="M156.323 48.6888L172.901 57.2229C172.836 58.3009 172.903 59.3311 172.838 60.4091L156.259 51.8749C156.325 50.797 156.39 49.719 156.323 48.6888Z" fill="#FED711"/>
<path d="M156.259 51.8749L172.838 60.4091C172.772 61.487 172.659 62.4314 172.594 63.5093L156.015 54.9751C156.081 53.8972 156.194 52.9528 156.259 51.8749Z" fill="#FED811"/>
<path d="M156.015 54.9751L172.594 63.5093C172.576 64.7208 172.377 65.8464 172.226 67.1055L155.648 58.5713C155.799 57.3122 155.864 56.2343 156.015 54.9751Z" fill="#FED911"/>
<path d="M155.648 58.5713L172.226 67.1055C172.075 68.3647 171.877 69.4902 171.726 70.7494L155.147 62.2152C155.298 60.9561 155.497 59.8305 155.648 58.5713Z" fill="#FEDA11"/>
<path d="M155.147 62.2152L171.726 70.7494C171.575 72.0085 171.376 73.1341 171.092 74.4409L154.513 65.9067C154.797 64.5999 154.996 63.4744 155.147 62.2152Z" fill="#FEDB11"/>
<path d="M154.646 65.8591L171.225 74.3933C171.026 75.5188 170.742 76.8256 170.543 77.9512L153.965 69.417C154.163 68.2915 154.314 67.0323 154.646 65.8591Z" fill="#FEDC11"/>
<path d="M153.831 69.4647L170.41 77.9988C170.211 79.1244 169.927 80.4312 169.595 81.6044L153.016 73.0703C153.348 71.897 153.633 70.5902 153.831 69.4647Z" fill="#FEDD11"/>
<path d="M153.15 73.0226L169.728 81.5568C169.396 82.73 169.245 83.9892 168.913 85.1624L152.335 76.6282C152.533 75.5026 152.865 74.3294 153.15 73.0226Z" fill="#FEDE12"/>
<path d="M152.201 76.6759L168.78 85.2101C168.448 86.3833 168.164 87.6901 167.832 88.8633L151.253 80.3291C151.585 79.1559 151.917 77.9827 152.201 76.6759Z" fill="#FEDF12"/>
<path d="M151.253 80.3291L167.832 88.8633C167.547 90.1701 167.082 91.391 166.665 92.7454L150.086 84.2112C150.551 82.9904 150.969 81.6359 151.253 80.3291Z" fill="#FEE012"/>
<path d="M150.086 84.2112L166.665 92.7454C166.247 94.0998 165.83 95.4543 165.412 96.8087L148.834 88.2746C149.384 86.8725 149.802 85.518 150.086 84.2112Z" fill="#FEE112"/>
<path d="M148.967 88.2269L165.545 96.7611C165.042 98.2968 164.539 99.8324 164.036 101.368L147.458 92.8339C147.828 91.3459 148.464 89.7626 148.967 88.2269Z" fill="#FEE212"/>
<path d="M147.325 92.8816L163.903 101.416C163.277 103.447 162.47 105.393 161.71 107.472L145.132 98.9383C145.891 96.859 146.698 94.9132 147.325 92.8816Z" fill="#FEE312"/>
<path d="M145.131 98.9383L161.71 107.472C159.507 113.081 156.904 118.832 154.168 124.631C153.826 125.356 153.484 126.081 153.142 126.806L136.563 118.272C136.905 117.547 137.247 116.822 137.589 116.097C140.326 110.298 142.928 104.547 145.131 98.9383Z" fill="#FEE83C"/>
<path d="M136.382 118.186L152.961 126.72C151.972 128.58 151.032 130.573 150.044 132.433L133.465 123.899C134.453 122.039 135.442 120.179 136.382 118.186Z" fill="#FEE312"/>
<path d="M133.465 123.899L150.044 132.433C149.312 133.749 148.58 135.065 147.848 136.381L131.27 127.847C132.002 126.531 132.733 125.215 133.465 123.899Z" fill="#FEE212"/>
<path d="M131.136 127.895L147.715 136.429C147.069 137.564 146.337 138.88 145.691 140.015L129.112 131.481C129.892 130.298 130.49 129.03 131.136 127.895Z" fill="#FEE112"/>
<path d="M129.112 131.481L145.691 140.015C145.044 141.15 144.35 142.152 143.79 143.105L127.211 134.571C127.905 133.57 128.418 132.482 129.112 131.481Z" fill="#FEE012"/>
<path d="M127.211 134.571L143.79 143.105C143.095 144.107 142.535 145.06 141.888 146.195L125.31 137.661C125.871 136.707 126.517 135.572 127.211 134.571Z" fill="#FEDF12"/>
<path d="M125.31 137.661L141.888 146.195C141.328 147.149 140.633 148.15 140.073 149.104L123.494 140.57C124.055 139.616 124.616 138.663 125.31 137.661Z" fill="#FEDE12"/>
<path d="M123.313 140.484L139.892 149.018C139.331 149.972 138.637 150.973 138.028 151.794L121.45 143.259C122.058 142.439 122.752 141.438 123.313 140.484Z" fill="#FEDD11"/>
<path d="M121.45 143.259L138.028 151.794C137.334 152.795 136.726 153.615 136.032 154.617L119.453 146.082C120.195 145.215 120.756 144.261 121.45 143.259Z" fill="#FEDC11"/>
<path d="M119.453 146.082L136.032 154.617C135.338 155.618 134.729 156.438 133.987 157.306L117.409 148.772C118.151 147.904 118.759 147.084 119.453 146.082Z" fill="#FEDB11"/>
<path d="M117.457 148.905L134.035 157.439C133.341 158.441 132.599 159.309 131.905 160.31L115.327 151.776C116.021 150.774 116.715 149.773 117.457 148.905Z" fill="#FEDA11"/>
<path d="M115.279 151.642L131.857 160.176C131.116 161.044 130.421 162.046 129.68 162.914L113.101 154.379C113.843 153.512 114.585 152.644 115.279 151.642Z" fill="#FED911"/>
<path d="M113.101 154.379L129.68 162.914C128.986 163.915 128.111 164.83 127.369 165.698L110.79 157.164C111.532 156.296 112.407 155.381 113.101 154.379Z" fill="#FED811"/>
<path d="M110.79 157.164L127.369 165.698C126.494 166.614 125.8 167.615 125.058 168.483L108.479 159.949C109.221 159.081 109.963 158.213 110.79 157.164Z" fill="#FED711"/>
<path d="M108.479 159.949L125.058 168.483C124.183 169.398 123.356 170.447 122.48 171.363L105.902 162.829C106.777 161.913 107.604 160.864 108.479 159.949Z" fill="#FED611"/>
<path d="M105.902 162.829L122.48 171.363C121.605 172.278 120.73 173.194 119.988 174.062L103.41 165.527C104.152 164.66 105.027 163.744 105.902 162.829Z" fill="#FED511"/>
<path d="M103.229 165.441L119.807 173.976C118.932 174.891 118.143 175.625 117.268 176.541L100.689 168.007C101.612 167.225 102.487 166.309 103.229 165.441Z" fill="#FED411"/>
<path d="M100.823 167.959L117.401 176.493C116.393 177.456 115.518 178.372 114.595 179.154L98.0163 170.619C98.9391 169.838 99.8142 168.922 100.823 167.959Z" fill="#FED311"/>
<path d="M97.883 170.667L114.461 179.201C113.453 180.164 112.397 180.994 111.389 181.957L94.8103 173.423C95.8186 172.46 96.8747 171.63 97.883 170.667Z" fill="#FED211"/>
<path d="M94.8103 173.423L111.389 181.957C110.38 182.92 109.191 183.797 108.135 184.627L91.5566 176.093C92.6127 175.263 93.7542 174.252 94.8103 173.423Z" fill="#FED110"/>
<path d="M91.5565 176.093L108.135 184.627C106.946 185.504 105.89 186.334 104.7 187.211L88.1217 178.677C89.3111 177.8 90.3672 176.97 91.5565 176.093Z" fill="#FED010"/>
<path d="M88.2073 178.496L104.786 187.03C103.596 187.907 102.359 188.651 101.255 189.347L84.677 180.812C85.7808 180.116 87.0179 179.373 88.2073 178.496Z" fill="#FECF10"/>
<path d="M84.5914 180.994L101.17 189.528C99.7995 190.319 98.5623 191.063 97.3252 191.806L80.7468 183.272C81.9839 182.528 83.3542 181.737 84.5914 180.994Z" fill="#FECE10"/>
<path d="M80.699 183.139L97.2775 191.673C95.7739 192.512 94.3557 193.169 92.9376 193.827L76.3591 185.293C77.825 184.769 79.3287 183.93 80.699 183.139Z" fill="#FECD10"/>
<path d="M76.3592 185.293L92.9377 193.827C91.1198 194.628 89.3873 195.247 87.6072 195.733L71.0287 187.199C72.8089 186.713 74.5413 186.094 76.3592 185.293Z" fill="#FECC10"/>
<path d="M71.0764 187.332L87.6549 195.867C81.5147 197.61 75.8299 197.684 70.9046 195.679C70.3615 195.422 69.8184 195.164 69.2754 194.906L52.6969 186.372C53.24 186.63 53.783 186.887 54.3261 187.145C59.2037 189.017 64.9363 189.076 71.0764 187.332Z" fill="#FECB10"/>
<path d="M140.732 12.2331C162.787 21.3703 161.362 67.8266 137.456 116.145C113.636 164.281 76.3328 196.149 54.2782 187.012C32.0904 177.922 33.6488 131.418 57.4691 83.2813C81.3749 34.9633 118.678 3.09602 140.732 12.2331ZM63.2762 168.88C80.7197 176.051 110.336 150.849 129.272 112.593C148.209 74.3373 149.311 37.487 131.868 30.3167C114.424 23.1463 84.8081 48.3483 65.8716 86.604C46.8018 124.907 45.6994 161.758 63.2762 168.88Z" fill="#FED110"/>
<path d="M107.655 110.983C104.22 113.567 100.717 115.12 97.7176 115.138L115.113 78.0362C118.112 78.0182 120.161 79.5453 121.202 82.0354L130.048 73.1479C129.762 72.3465 127.985 66.9561 120.147 66.896L130.275 45.1975L122.038 45.2804L110.932 69.2871C101.272 73.7958 91.0754 84.3713 85.3943 96.6465C79.58 108.969 79.9058 119.549 85.3765 123.92L74.1377 147.974L82.3746 147.891L92.5018 126.193C100.291 126.119 107.113 120.818 108.255 119.807L107.655 110.983ZM93.0981 96.7542C95.9198 90.774 100.237 85.6147 104.862 82.1536L91.5328 110.872C90.1579 107.447 90.362 102.553 93.0981 96.7542Z" fill="#CF8E00"/>
<path d="M106.234 109.532C102.933 112.068 99.4301 113.622 96.2972 113.688L113.692 76.5857C116.692 76.5677 118.741 78.0948 119.782 80.5849L128.628 71.6974C128.341 70.896 126.564 65.5056 118.727 65.4455L128.854 43.747L120.618 43.8299L109.597 67.6554C99.937 72.164 89.7405 82.7396 84.0595 95.0147C78.2452 107.338 78.571 117.917 84.0417 122.288L72.8028 146.342L81.0397 146.259L91.167 124.561C98.9563 124.487 105.778 119.186 106.92 118.175L106.234 109.532ZM91.7633 95.1224C94.5849 89.1423 98.9025 83.983 103.527 80.5219L90.198 109.24C88.6897 105.863 89.0271 100.921 91.7633 95.1224Z" fill="#FFCD2A"/>
</g>
<defs>
<clipPath id="clip0_76_2879">
<rect width="167" height="161" fill="white" transform="translate(0 56.226) rotate(-19.6749)"/>
</clipPath>
</defs>
</svg>
