<svg width="188" height="184" viewBox="0 0 188 184" fill="none" xmlns="http://www.w3.org/2000/svg">
<g clip-path="url(#clip0_76_2614)">
<path d="M119.645 142.053L127.618 126.851C126.633 126.718 125.774 126.55 124.789 126.418L116.816 141.62C117.675 141.788 118.66 141.92 119.645 142.053Z" fill="#FED311"/>
<path d="M116.816 141.62L124.789 126.418C123.93 126.25 123.105 126.208 122.246 126.04L114.274 141.243C115.133 141.41 115.957 141.452 116.816 141.62Z" fill="#FED411"/>
<path d="M114.274 141.243L122.246 126.04C121.387 125.873 120.528 125.705 119.669 125.537L111.696 140.74C112.43 140.942 113.289 141.11 114.274 141.243Z" fill="#FED511"/>
<path d="M111.536 140.649L119.508 125.447C118.649 125.279 117.629 125.021 116.77 124.853L108.798 140.055C109.818 140.314 110.677 140.481 111.536 140.649Z" fill="#FED611"/>
<path d="M108.798 140.055L116.77 124.853C115.911 124.685 115.017 124.392 114.158 124.224L106.186 139.427C107.08 139.72 107.939 139.887 108.798 140.055Z" fill="#FED711"/>
<path d="M106.311 139.392L114.284 124.189C113.425 124.022 112.531 123.729 111.637 123.435L103.664 138.637C104.593 139.056 105.452 139.224 106.311 139.392Z" fill="#FED811"/>
<path d="M103.699 138.763L111.671 123.561C110.812 123.393 110.044 123.065 109.185 122.897L101.213 138.1C102.072 138.267 102.84 138.595 103.699 138.763Z" fill="#FED911"/>
<path d="M101.213 138.1L109.185 122.897C108.291 122.604 107.558 122.402 106.664 122.108L98.6913 137.31C99.5853 137.604 100.444 137.771 101.213 138.1Z" fill="#FEDA11"/>
<path d="M98.8171 137.276L106.789 122.073C106.056 121.871 105.288 121.543 104.394 121.249L96.4215 136.451C97.1897 136.78 97.9231 136.982 98.8171 137.276Z" fill="#FEDB11"/>
<path d="M96.4215 136.451L104.394 121.249C103.626 120.921 102.892 120.719 101.998 120.425L94.026 135.627C94.7942 135.956 95.6882 136.249 96.4215 136.451Z" fill="#FEDC11"/>
<path d="M94.026 135.627L101.998 120.425C101.23 120.097 100.497 119.895 99.7286 119.566L91.7562 134.769C92.5244 135.097 93.2926 135.425 94.026 135.627Z" fill="#FEDD11"/>
<path d="M91.7562 134.769L99.7286 119.566C98.9603 119.238 98.1921 118.91 97.4239 118.582L89.4515 133.784C90.2546 134.238 90.9879 134.44 91.7562 134.769Z" fill="#FEDE12"/>
<path d="M89.3606 133.945L97.333 118.742C96.5648 118.414 95.6708 118.121 94.9026 117.793L86.9302 132.995C87.7893 133.163 88.5924 133.616 89.3606 133.945Z" fill="#FEDF12"/>
<path d="M87.0211 132.834L94.9935 117.632C94.2253 117.304 93.2965 116.885 92.5282 116.557L84.5559 131.759C85.3589 132.213 86.1271 132.541 87.0211 132.834Z" fill="#FEE012"/>
<path d="M84.4301 131.794L92.4025 116.592C91.4737 116.173 90.5448 115.754 89.616 115.335L81.6436 130.537C82.6982 130.921 83.627 131.34 84.4301 131.794Z" fill="#FEE112"/>
<path d="M81.7693 130.502L89.7417 115.3C88.8129 114.881 87.7235 114.371 86.7598 113.827L78.7874 129.029C79.7511 129.573 80.7148 130.118 81.7693 130.502Z" fill="#FEE212"/>
<path d="M78.8223 129.154L86.7946 113.952C85.384 113.261 83.9733 112.57 82.6884 111.844L74.716 127.046C76.0009 127.772 77.4116 128.463 78.8223 129.154Z" fill="#FEE312"/>
<path d="M74.5902 127.081L82.5626 111.879C82.0808 111.606 81.4732 111.369 80.9913 111.097C76.8502 108.862 72.9606 106.558 69.2877 104.059L61.3153 119.261C64.9882 121.76 68.8778 124.064 73.019 126.299C73.5917 126.41 74.0735 126.683 74.5902 127.081Z" fill="#FEE83C"/>
<path d="M61.2805 119.135L69.2529 103.933C67.9331 103.081 66.6133 102.229 65.3845 101.217L57.4121 116.419C58.6409 117.432 59.9607 118.283 61.2805 119.135Z" fill="#FEE312"/>
<path d="M57.4469 116.545L65.4193 101.343C64.4208 100.672 63.548 99.9673 62.5494 99.2971L54.5771 114.499C55.415 115.079 56.4484 115.875 57.4469 116.545Z" fill="#FEE212"/>
<path d="M54.5422 114.374L62.5146 99.1714C61.6767 98.5919 60.8039 97.8868 60.0917 97.2724L52.1193 112.475C52.8664 113.215 53.7043 113.794 54.5422 114.374Z" fill="#FEE112"/>
<path d="M52.1542 112.6L60.1266 97.398C59.4144 96.7836 58.5765 96.2042 57.8643 95.5898L49.8919 110.792C50.5693 111.281 51.3163 112.021 52.1542 112.6Z" fill="#FEE012"/>
<path d="M49.7313 110.701L57.7037 95.499C56.9915 94.8846 56.2794 94.2703 55.6021 93.7815L47.6297 108.984C48.3418 109.598 49.054 110.212 49.7313 110.701Z" fill="#FEDF12"/>
<path d="M47.6297 108.984L55.6021 93.7815C54.8899 93.1672 54.1777 92.5528 53.6262 92.0292L45.6538 107.231C46.3311 107.72 46.9175 108.369 47.6297 108.984Z" fill="#FEDE12"/>
<path d="M47.6297 108.984L55.6021 93.7816C54.8899 93.1672 54.1777 92.5528 53.6262 92.0292L45.6538 107.231C46.3311 107.72 46.9175 108.369 47.6297 108.984Z" fill="#FEDE12"/>
<path d="M45.6538 107.231L53.6262 92.0292C52.914 91.4148 52.3276 90.7656 51.6154 90.1512L43.6431 105.353C44.3552 105.968 44.9416 106.617 45.6538 107.231Z" fill="#FEDD11"/>
<path d="M43.6431 105.353L51.6154 90.1512C50.9033 89.5368 50.3169 88.8875 49.7305 88.2383L41.7581 103.44C42.3445 104.09 42.9309 104.739 43.6431 105.353Z" fill="#FEDC11"/>
<path d="M41.7581 103.44L49.7305 88.2383C49.1441 87.589 48.4319 86.9747 47.8455 86.3254L39.8731 101.528C40.4595 102.177 41.0459 102.826 41.7581 103.44Z" fill="#FEDB11"/>
<path d="M39.8731 101.528L47.8455 86.3254C47.2591 85.6761 46.6727 85.0269 46.0863 84.3776L38.1139 99.5798C38.5745 100.264 39.1609 100.913 39.8731 101.528Z" fill="#FEDA11"/>
<path d="M37.9881 99.6147L45.9605 84.4125C45.3741 83.7632 44.7877 83.114 44.2013 82.4647L36.2289 97.6669C36.8153 98.3161 37.4017 98.9654 37.9881 99.6147Z" fill="#FED911"/>
<path d="M36.3547 97.632L44.3271 82.4298C43.9013 81.8713 43.3149 81.2221 42.8891 80.6636L34.9167 95.8658C35.3425 96.4243 35.7683 96.9827 36.3547 97.632Z" fill="#FED811"/>
<path d="M34.9167 95.8658L42.8891 80.6636C42.4284 79.9795 41.8769 79.4558 41.4162 78.7717L33.4439 93.9739C33.9045 94.658 34.3303 95.2165 34.9167 95.8658Z" fill="#FED711"/>
<path d="M33.4439 93.9739L41.4162 78.7717C40.795 77.9968 40.3343 77.3126 39.8388 76.5028L31.8665 91.705C32.362 92.5148 32.8575 93.3246 33.4439 93.9739Z" fill="#FED611"/>
<path d="M31.8665 91.705L39.8388 76.5029C39.3782 75.8187 38.8827 75.0089 38.4221 74.3248L30.4497 89.5269C30.7845 90.246 31.28 91.0558 31.8665 91.705Z" fill="#FED511"/>
<path d="M30.4497 89.5269L38.4221 74.3248C37.9614 73.6406 37.6265 72.9216 37.131 72.1118L29.1586 87.314C29.5284 88.1586 29.989 88.8428 30.4497 89.5269Z" fill="#FED411"/>
<path d="M29.1586 87.314L37.131 72.1118C36.7961 71.3928 36.3355 70.7086 36.0006 69.9896L28.0282 85.1918C28.3631 85.9108 28.698 86.6298 29.1586 87.314Z" fill="#FED311"/>
<path d="M28.0282 85.1918L36.0006 69.9896C35.6657 69.2706 35.3308 68.5516 34.996 67.8325L27.0236 83.0347C27.3585 83.7537 27.6933 84.4727 28.0282 85.1918Z" fill="#FED211"/>
<path d="M27.1842 83.1255L35.1566 67.9233C34.8217 67.2043 34.6126 66.4504 34.4034 65.6964L26.431 80.8986C26.6402 81.6525 26.8493 82.4064 27.1842 83.1255Z" fill="#FED110"/>
<path d="M26.3053 80.9335L34.2777 65.7313C34.0685 64.9774 33.8594 64.2235 33.6852 63.5952L25.7128 78.7974C25.887 79.4257 26.0962 80.1796 26.3053 80.9335Z" fill="#FED010"/>
<path d="M25.7128 78.7974L33.6851 63.5952C33.476 62.8413 33.3927 62.0525 33.3093 61.2637L25.3369 76.4659C25.4203 77.2547 25.6294 78.0086 25.7128 78.7974Z" fill="#FECF10"/>
<path d="M25.3369 76.4659L33.3093 61.2637C33.2259 60.4749 33.1426 59.6861 33.185 58.8625L25.2126 74.0646C25.1702 74.8883 25.2535 75.6771 25.3369 76.4659Z" fill="#FECE10"/>
<path d="M25.2126 74.0646L33.185 58.8625C33.1925 57.9131 33.2349 57.0895 33.4031 56.2309L25.4307 71.4331C25.2625 72.2916 25.0944 73.1502 25.2126 74.0646Z" fill="#FECD10"/>
<path d="M25.3049 71.4679L33.2773 56.2658C33.4106 55.2815 33.6697 54.2624 34.0545 53.2085L26.0821 68.4106C25.6973 69.4646 25.4382 70.4837 25.3049 71.4679Z" fill="#FECC10"/>
<path d="M26.0821 68.4106L34.0545 53.2085C34.2923 52.6012 34.4393 52.1545 34.8378 51.638L26.8654 66.8401C26.5927 67.3217 26.3548 67.929 26.0821 68.4106Z" fill="#FECB10"/>
<path d="M153.244 132.327L161.217 117.125C161.035 117.446 160.762 117.928 160.58 118.249C158.511 121.529 155.121 123.958 150.664 125.465L142.691 140.667C147.149 139.16 150.538 136.731 152.608 133.451C152.79 133.13 153.097 132.774 153.244 132.327Z" fill="#FECB10"/>
<path d="M142.691 140.667L150.664 125.465C149.441 125.94 148.057 126.323 146.639 126.581L138.667 141.784C140.05 141.4 141.434 141.016 142.691 140.667Z" fill="#FECC10"/>
<path d="M138.667 141.784L146.639 126.581C145.473 126.77 144.306 126.958 143.139 127.146L135.167 142.348C136.333 142.16 137.5 141.972 138.667 141.784Z" fill="#FECD10"/>
<path d="M135.167 142.348L143.139 127.146C142.098 127.3 141.022 127.327 139.821 127.39L131.849 142.592C133.05 142.53 134.091 142.376 135.167 142.348Z" fill="#FECE10"/>
<path d="M131.974 142.557L139.947 127.355C138.871 127.383 137.921 127.376 136.845 127.404L128.873 142.606C129.823 142.613 130.899 142.585 131.974 142.557Z" fill="#FECF10"/>
<path d="M128.747 142.641L136.719 127.439C135.769 127.431 134.694 127.459 133.583 127.361L125.61 142.563C126.721 142.661 127.797 142.634 128.747 142.641Z" fill="#FED010"/>
<path d="M125.736 142.529L133.709 127.326C132.759 127.319 131.648 127.221 130.663 127.089L122.691 142.291C123.676 142.424 124.66 142.556 125.736 142.529Z" fill="#FED110"/>
<path d="M122.565 142.326L130.537 127.124C129.552 126.991 128.568 126.858 127.457 126.76L119.484 141.962C120.63 142.186 121.615 142.319 122.565 142.326Z" fill="#FED211"/>
<path d="M119.645 142.053L127.618 126.851C126.633 126.718 125.773 126.55 124.789 126.418L116.816 141.62C117.675 141.788 118.66 141.92 119.645 142.053Z" fill="#FED311"/>
<path d="M153.244 132.327C143.703 141.875 115.134 138.974 85.3981 125.03C51.4647 109.138 23.2447 82.5944 27.732 66.0585C32.7936 47.1982 75.6814 52.8933 115.624 77.2675C149.485 97.7807 163.868 121.802 153.244 132.327Z" fill="#F1B400"/>
<path d="M169.865 140.978L177.837 125.776C178.201 125.134 178.404 124.401 178.767 123.759L170.795 138.961C170.431 139.603 170.194 140.21 169.865 140.978Z" fill="#FECB10"/>
<path d="M170.634 138.87L178.607 123.668C179.082 122.454 179.398 121.148 179.587 119.878L171.615 135.08C171.425 136.35 171.11 137.656 170.634 138.87Z" fill="#FECC10"/>
<path d="M171.74 135.045L179.713 119.843C179.811 118.733 179.91 117.623 179.882 116.548L171.91 131.75C171.937 132.825 171.839 133.935 171.74 135.045Z" fill="#FECD10"/>
<path d="M171.91 131.75L179.882 116.548C179.89 115.599 179.737 114.559 179.709 113.484L171.737 128.686C171.764 129.761 171.917 130.801 171.91 131.75Z" fill="#FECE10"/>
<path d="M171.611 128.721L179.584 113.519C179.465 112.604 179.312 111.564 179.068 110.685L171.096 125.887C171.375 126.892 171.493 127.806 171.611 128.721Z" fill="#FECF10"/>
<path d="M171.096 125.887L179.068 110.685C178.824 109.805 178.58 108.925 178.302 107.92L170.329 123.122C170.734 124.093 170.978 124.972 171.096 125.887Z" fill="#FED010"/>
<path d="M170.329 123.122L178.302 107.92C178.058 107.041 177.653 106.07 177.283 105.226L169.311 120.428C169.841 121.363 170.085 122.243 170.329 123.122Z" fill="#FED110"/>
<path d="M169.437 120.393L177.409 105.191C177.039 104.346 176.635 103.376 176.265 102.531L168.293 117.733C168.662 118.578 169.067 119.548 169.437 120.393Z" fill="#FED211"/>
<path d="M168.293 117.733L176.265 102.531C175.895 101.686 175.365 100.751 174.835 99.8156L166.862 115.018C167.393 115.953 167.762 116.798 168.293 117.733Z" fill="#FED311"/>
<path d="M166.862 115.018L174.835 99.8155C174.304 98.8801 173.774 97.9447 173.278 97.1349L165.306 112.337C165.801 113.147 166.332 114.082 166.862 115.018Z" fill="#FED411"/>
<path d="M165.271 112.211L173.243 97.0092C172.713 96.0738 172.057 95.1732 171.401 94.2726L163.429 109.475C164.085 110.375 164.741 111.276 165.271 112.211Z" fill="#FED511"/>
<path d="M163.429 109.475L171.401 94.2726C170.745 93.3721 170.054 92.3459 169.398 91.4453L161.425 106.647C162.207 107.513 162.898 108.539 163.429 109.475Z" fill="#FED611"/>
<path d="M161.425 106.647L169.398 91.4453C168.776 90.6704 168.281 89.8606 167.66 89.0857L159.687 104.288C160.309 105.063 160.93 105.838 161.425 106.647Z" fill="#FED711"/>
<path d="M159.687 104.288L167.66 89.0857C167.038 88.3108 166.452 87.6615 165.831 86.8866L157.858 102.089C158.48 102.864 159.066 103.513 159.687 104.288Z" fill="#FED811"/>
<path d="M157.858 102.089L165.831 86.8866C165.175 85.986 164.428 85.246 163.646 84.3803L155.673 99.5825C156.455 100.448 157.077 101.223 157.858 102.089Z" fill="#FED911"/>
<path d="M155.673 99.5825L163.646 84.3803C162.864 83.5146 162.117 82.7746 161.335 81.9089L153.363 97.1111C154.145 97.9768 154.892 98.7168 155.673 99.5825Z" fill="#FEDA11"/>
<path d="M153.363 97.1111L161.335 81.9089C160.553 81.0432 159.806 80.3032 158.898 79.4724L150.926 94.6746C151.834 95.5054 152.581 96.2454 153.363 97.1111Z" fill="#FEDB11"/>
<path d="M151.052 94.6397L159.024 79.4375C158.277 78.6975 157.37 77.8667 156.623 77.1267L148.65 92.3289C149.397 93.0689 150.179 93.9346 151.052 94.6397Z" fill="#FEDC11"/>
<path d="M148.524 92.3637L156.497 77.1616C155.75 76.4215 154.842 75.5907 153.969 74.8856L145.997 90.0878C146.87 90.7929 147.777 91.6237 148.524 92.3637Z" fill="#FEDD11"/>
<path d="M146.123 90.0529L154.095 74.8507C153.222 74.1456 152.441 73.2799 151.568 72.5748L143.595 87.7769C144.342 88.5169 145.215 89.2221 146.123 90.0529Z" fill="#FEDE12"/>
<path d="M143.47 87.8118L151.442 72.6096C150.569 71.9045 149.662 71.0737 148.789 70.3685L140.816 85.5707C141.689 86.2759 142.562 86.981 143.47 87.8118Z" fill="#FEDF12"/>
<path d="M140.816 85.5707L148.789 70.3686C147.881 69.5378 146.883 68.8675 145.849 68.0716L137.877 83.2738C138.875 83.944 139.909 84.7399 140.816 85.5707Z" fill="#FEE012"/>
<path d="M137.877 83.2738L145.849 68.0716C144.816 67.2757 143.782 66.4798 142.749 65.6839L134.777 80.886C135.936 81.6471 136.969 82.443 137.877 83.2738Z" fill="#FEE112"/>
<path d="M134.902 80.8511L142.875 65.649C141.681 64.7623 140.487 63.8756 139.293 62.9889L131.32 78.1911C132.389 79.1127 133.708 79.9645 134.902 80.8511Z" fill="#FEE212"/>
<path d="M131.195 78.226L139.167 63.0238C137.617 61.83 135.976 60.7966 134.3 59.6377L126.328 74.8398C128.004 75.9988 129.645 77.0321 131.195 78.226Z" fill="#FEE312"/>
<path d="M126.328 74.8398L134.3 59.6376C129.663 56.5935 124.65 53.6541 119.51 50.7495C118.867 50.3864 118.225 50.0234 117.583 49.6603L109.61 64.8624C110.253 65.2255 110.895 65.5886 111.538 65.9517C116.677 68.8562 121.691 71.7957 126.328 74.8398Z" fill="#FEE83C"/>
<path d="M109.519 65.023L117.492 49.8208C115.76 48.948 113.993 47.9496 112.261 47.0768L104.289 62.279C106.021 63.1517 107.752 64.0245 109.519 65.023Z" fill="#FEE312"/>
<path d="M104.289 62.279L112.261 47.0768C111.011 46.4763 109.761 45.8758 108.511 45.2753L100.539 60.4775C101.789 61.078 103.039 61.6785 104.289 62.279Z" fill="#FEE212"/>
<path d="M100.413 60.5124L108.385 45.3102C107.296 44.8005 106.046 44.2 104.956 43.6903L96.9838 58.8924C98.199 59.3673 99.3233 60.0026 100.413 60.5124Z" fill="#FEE112"/>
<path d="M96.9838 58.8924L104.956 43.6903C103.867 43.1806 102.812 42.7965 101.883 42.3775L93.9109 57.5797C94.9655 57.9638 95.9292 58.5084 96.9838 58.8924Z" fill="#FEE012"/>
<path d="M93.9109 57.5797L101.883 42.3775C100.829 41.9934 99.8999 41.5745 98.8104 41.0648L90.8381 56.2669C91.7669 56.6859 92.8563 57.1956 93.9109 57.5797Z" fill="#FEDF12"/>
<path d="M90.8381 56.2669L98.8105 41.0648C97.8816 40.6458 96.827 40.2617 95.8982 39.8428L87.9258 55.0449C88.8546 55.4639 89.7835 55.8828 90.8381 56.2669Z" fill="#FEDE12"/>
<path d="M87.8349 55.2055L95.8073 40.0033C94.8785 39.5844 93.8239 39.2003 92.9299 38.907L84.9575 54.1092C85.8515 54.4025 86.9061 54.7865 87.8349 55.2055Z" fill="#FEDD11"/>
<path d="M84.9575 54.1092L92.9299 38.907C91.8753 38.5229 90.9813 38.2296 89.9267 37.8456L81.9543 53.0477C82.9741 53.3061 83.9029 53.7251 84.9575 54.1092Z" fill="#FEDC11"/>
<path d="M81.9543 53.0477L89.9267 37.8455C88.8721 37.4615 87.9782 37.1682 86.9584 36.9098L78.986 52.1119C80.0058 52.3703 80.8998 52.6636 81.9543 53.0477Z" fill="#FEDB11"/>
<path d="M78.9512 51.9862L86.9236 36.7841C85.869 36.4 84.8493 36.1416 83.7947 35.7575L75.8223 50.9597C76.8769 51.3438 77.9315 51.7278 78.9512 51.9862Z" fill="#FEDA11"/>
<path d="M75.8571 51.0854L83.8295 35.8832C82.8098 35.6248 81.7552 35.2407 80.7355 34.9823L72.7631 50.1845C73.7828 50.4429 74.8025 50.7013 75.8571 51.0854Z" fill="#FED911"/>
<path d="M72.7631 50.1845L80.7355 34.9823C79.6809 34.5982 78.5354 34.3747 77.5156 34.1163L69.5432 49.3184C70.563 49.5768 71.7085 49.8004 72.7631 50.1845Z" fill="#FED811"/>
<path d="M69.5432 49.3184L77.5156 34.1163C76.3701 33.8927 75.3155 33.5087 74.2958 33.2502L66.3234 48.4524C67.3432 48.7108 68.3629 48.9692 69.5432 49.3184Z" fill="#FED711"/>
<path d="M66.3234 48.4524L74.2958 33.2502C73.1503 33.0267 71.97 32.6775 70.8245 32.454L62.8521 47.6561C63.9976 47.8797 65.1779 48.2289 66.3234 48.4524Z" fill="#FED611"/>
<path d="M62.8521 47.6561L70.8245 32.454C69.679 32.2304 68.5335 32.0069 67.5137 31.7485L59.5413 46.9506C60.5611 47.2091 61.7066 47.4326 62.8521 47.6561Z" fill="#FED511"/>
<path d="M59.4504 47.1112L67.4228 31.909C66.2773 31.6855 65.2925 31.5527 64.147 31.3292L56.1746 46.5313C57.2852 46.6292 58.4307 46.8528 59.4504 47.1112Z" fill="#FED411"/>
<path d="M56.3003 46.4965L64.2727 31.2943C63.0015 31.1056 61.856 30.8821 60.7453 30.7842L52.7729 45.9864C53.8836 46.0843 55.0291 46.3078 56.3003 46.4965Z" fill="#FED311"/>
<path d="M52.6472 46.0213L60.6196 30.8191C59.3483 30.6305 58.1119 30.5675 56.8407 30.3788L48.8683 45.581C50.1395 45.7696 51.3759 45.8326 52.6472 46.0213Z" fill="#FED211"/>
<path d="M48.8683 45.581L56.8407 30.3788C55.5694 30.1902 54.2072 30.1621 52.9708 30.0991L44.9984 45.3012C46.2348 45.3642 47.6319 45.518 48.8683 45.581Z" fill="#FED110"/>
<path d="M44.9984 45.3012L52.9708 30.099C51.6087 30.0709 50.3723 30.0079 49.0101 29.9798L41.0377 45.182C42.3999 45.2101 43.6363 45.2731 44.9984 45.3012Z" fill="#FED010"/>
<path d="M41.1983 45.2728L49.1707 30.0706C47.8085 30.0425 46.4812 30.14 45.2797 30.2027L37.3073 45.4048C38.5089 45.3422 39.8362 45.2446 41.1983 45.2728Z" fill="#FECF10"/>
<path d="M37.1467 45.3141L45.1191 30.1119C43.666 30.2443 42.3387 30.3419 41.0114 30.4394L33.039 45.6416C34.3663 45.544 35.8194 45.4116 37.1467 45.3141Z" fill="#FECE10"/>
<path d="M33.0739 45.7672L41.0463 30.565C39.4674 30.7323 38.0492 30.9904 36.631 31.2485L28.6586 46.4506C30.042 46.0669 31.6208 45.8996 33.0739 45.7672Z" fill="#FECD10"/>
<path d="M28.6586 46.4506L36.631 31.2485C34.8355 31.6112 33.2006 32.0647 31.6006 32.6438L23.6282 47.846C25.2282 47.2669 26.8631 46.8134 28.6586 46.4506Z" fill="#FECC10"/>
<path d="M23.5934 47.7204L31.5658 32.5182C26.0111 34.4649 21.6853 37.424 19.0354 41.5421C18.7627 42.0237 18.49 42.5053 18.2173 42.9869L10.2449 58.1891C10.5176 57.7074 10.7903 57.2258 11.063 56.7442C13.7478 52.7518 18.0387 49.6671 23.5934 47.7204Z" fill="#FECB10"/>
<path d="M169.012 142.297C180.793 123.738 155.072 89.6004 111.412 65.9865C67.9127 42.4634 22.8794 38.3107 11.098 56.8699C-0.809277 75.4639 25.0382 109.567 68.5373 133.09C112.197 156.704 157.23 160.857 169.012 142.297ZM27.5018 65.7163C36.85 51.0798 72.5512 54.3028 107.126 72.9942C141.7 91.6856 162.082 118.779 152.734 133.416C143.386 148.053 107.684 144.83 73.1099 126.138C38.4097 107.482 18.0278 80.3878 27.5018 65.7163Z" fill="#FED110"/>
<path d="M91.6801 85.6685C87.7194 85.5492 84.2541 86.2398 81.9829 87.8171L114.783 106.459C117.054 104.882 117.789 102.648 117.253 100.226L128.638 102.21C128.847 102.964 130.367 107.955 124.49 112.157L143.638 123.084L137.383 127.39L116.273 115.248C106.597 116.985 93.2979 114.449 82.5019 108.242C71.5801 102.07 66.213 93.9506 68.0189 87.7662L46.783 75.6592L53.0375 71.3532L72.1855 82.2802C78.0976 78.2045 86.0539 78.5686 87.4509 78.7224L91.6801 85.6685ZM88.2534 104.075C93.5537 107.071 99.5463 108.656 104.869 108.803L79.5831 94.3015C80.3635 97.6033 83.1138 101.171 88.2534 104.075Z" fill="#CF8E00"/>
<path d="M91.3786 87.5112C87.5437 87.3571 84.0784 88.0477 81.6815 89.6598L114.482 108.302C116.753 106.725 117.488 104.491 116.951 102.069L128.336 104.053C128.546 104.807 130.065 109.798 124.188 114L143.336 124.927L137.082 129.233L116.132 117.181C106.456 118.918 93.157 116.382 82.361 110.175C71.4393 104.003 66.0721 95.8841 67.878 89.6998L46.6421 77.5927L52.8967 73.2867L72.0446 84.2138C77.9568 80.138 85.9131 80.5022 87.3101 80.6559L91.3786 87.5112ZM88.1126 106.009C93.4128 109.004 99.4055 110.59 104.728 110.737L79.4422 96.2351C80.0969 99.5718 82.9729 103.104 88.1126 106.009Z" fill="#FFCD2A"/>
</g>
<defs>
<clipPath id="clip0_76_2614">
<rect width="154" height="148" fill="white" transform="matrix(0.963615 -0.267294 -0.267294 -0.963615 39.5595 183.889)"/>
</clipPath>
</defs>
</svg>
