<svg width="95" height="92" viewBox="0 0 95 92" fill="none" xmlns="http://www.w3.org/2000/svg">
<g clip-path="url(#clip0_76_2735)" filter="url(#filter0_f_76_2735)">
<path d="M53.7288 74.2908L59.678 67.8626C59.2153 67.6617 58.8187 67.4608 58.356 67.2599L52.4068 73.6881C52.8034 73.889 53.2661 74.0899 53.7288 74.2908Z" fill="#FED311"/>
<path d="M52.4068 73.6881L58.3559 67.2599C57.9593 67.0591 57.5627 66.9251 57.1661 66.7243L51.2169 73.1525C51.6136 73.3533 52.0102 73.4873 52.4068 73.6881Z" fill="#FED411"/>
<path d="M51.217 73.1524L57.1661 66.7242C56.7695 66.5234 56.3729 66.3225 55.9763 66.1216L50.0271 72.5498C50.3576 72.7507 50.7543 72.9516 51.217 73.1524Z" fill="#FED511"/>
<path d="M49.961 72.4828L55.9102 66.0547C55.5136 65.8538 55.0509 65.5859 54.6543 65.3851L48.7051 71.8132C49.1678 72.0811 49.5644 72.282 49.961 72.4828Z" fill="#FED611"/>
<path d="M48.7051 71.8132L54.6542 65.385C54.2576 65.1842 53.861 64.9163 53.4644 64.7154L47.5153 71.1436C47.9119 71.4115 48.3085 71.6124 48.7051 71.8132Z" fill="#FED711"/>
<path d="M47.5814 71.1436L53.5305 64.7155C53.1339 64.5146 52.7373 64.2467 52.3407 63.9789L46.3915 70.4071C46.7882 70.7419 47.1848 70.9428 47.5814 71.1436Z" fill="#FED811"/>
<path d="M46.3915 70.474L52.3407 64.0458C51.9441 63.845 51.6136 63.5771 51.217 63.3762L45.2678 69.8044C45.6644 70.0053 45.9949 70.2731 46.3915 70.474Z" fill="#FED911"/>
<path d="M45.2678 69.8044L51.217 63.3762C50.8203 63.1084 50.4898 62.9075 50.0932 62.6397L44.1441 69.0678C44.5407 69.3357 44.9373 69.5366 45.2678 69.8044Z" fill="#FEDA11"/>
<path d="M44.2102 69.0679L50.1593 62.6397C49.8288 62.4388 49.4983 62.171 49.1017 61.9031L43.1526 68.3313C43.4831 68.5991 43.8136 68.8 44.2102 69.0679Z" fill="#FEDB11"/>
<path d="M43.1526 68.3313L49.1017 61.9031C48.7712 61.6353 48.4407 61.4344 48.0441 61.1665L42.0949 67.5947C42.4254 67.8626 42.822 68.1304 43.1526 68.3313Z" fill="#FEDC11"/>
<path d="M42.0949 67.5947L48.0441 61.1665C47.7136 60.8987 47.3831 60.6978 47.0525 60.43L41.1034 66.8582C41.4339 67.126 41.7644 67.3938 42.0949 67.5947Z" fill="#FEDD11"/>
<path d="M41.1034 66.8582L47.0526 60.43C46.722 60.1621 46.3915 59.8943 46.061 59.6265L40.1119 66.0547C40.4424 66.3895 40.7729 66.5903 41.1034 66.8582Z" fill="#FEDE12"/>
<path d="M40.0458 66.1216L45.9949 59.6934C45.6644 59.4256 45.2678 59.1577 44.9373 58.8899L38.9881 65.3181C39.3848 65.519 39.7153 65.8538 40.0458 66.1216Z" fill="#FEDF12"/>
<path d="M39.0543 65.2511L45.0034 58.8229C44.6729 58.5551 44.2763 58.2203 43.9458 57.9524L37.9966 64.3806C38.3271 64.7154 38.6576 64.9833 39.0543 65.2511Z" fill="#FEE012"/>
<path d="M37.9305 64.3806L43.8797 57.9525C43.4831 57.6176 43.0865 57.2828 42.6898 56.948L36.7407 63.3762C37.2034 63.711 37.6 64.0458 37.9305 64.3806Z" fill="#FEE112"/>
<path d="M36.8068 63.3762L42.7559 56.948C42.3593 56.6132 41.8966 56.2115 41.5 55.8097L35.5509 62.2379C35.9475 62.6397 36.3441 63.0414 36.8068 63.3762Z" fill="#FEE212"/>
<path d="M35.5509 62.3049L41.5 55.8767C40.9051 55.341 40.3102 54.8053 39.7814 54.2696L33.8322 60.6978C34.361 61.2335 34.9559 61.7692 35.5509 62.3049Z" fill="#FEE312"/>
<path d="M33.7661 60.6978L39.7153 54.2696C39.517 54.0687 39.2526 53.8679 39.0543 53.667C37.3356 51.993 35.7492 50.319 34.2949 48.578L28.3458 55.0062C29.8 56.7472 31.3865 58.4212 33.1051 60.0952C33.3695 60.2291 33.5678 60.43 33.7661 60.6978Z" fill="#FEE83C"/>
<path d="M28.3458 54.9392L34.2949 48.511C33.7661 47.9084 33.2373 47.3058 32.7746 46.6362L26.8254 53.0644C27.2882 53.734 27.817 54.3366 28.3458 54.9392Z" fill="#FEE312"/>
<path d="M26.8254 53.1313L32.7746 46.7031C32.378 46.2344 32.0475 45.7656 31.6509 45.2969L25.7017 51.7251C26.0322 52.1269 26.4288 52.6626 26.8254 53.1313Z" fill="#FEE212"/>
<path d="M25.7017 51.6582L31.6509 45.23C31.3203 44.8282 30.9898 44.3595 30.7254 43.9577L24.7763 50.3859C25.0407 50.8546 25.3712 51.2564 25.7017 51.6582Z" fill="#FEE112"/>
<path d="M24.7763 50.4529L30.7254 44.0247C30.461 43.6229 30.1305 43.2212 29.8661 42.8194L23.917 49.2476C24.1814 49.5824 24.4458 50.0511 24.7763 50.4529Z" fill="#FEE012"/>
<path d="M23.8509 49.1806L29.8 42.7524C29.5356 42.3507 29.2712 41.9489 29.0068 41.6141L23.0576 48.0423C23.322 48.4441 23.5864 48.8458 23.8509 49.1806Z" fill="#FEDF12"/>
<path d="M23.0576 48.0423L29.0068 41.6141C28.7424 41.2123 28.478 40.8106 28.2797 40.4758L22.3305 46.904C22.5949 47.2388 22.7932 47.6405 23.0576 48.0423Z" fill="#FEDE12"/>
<path d="M23.0576 48.0423L29.0068 41.6141C28.7424 41.2123 28.478 40.8106 28.2797 40.4758L22.3305 46.904C22.5949 47.2388 22.7932 47.6405 23.0576 48.0423Z" fill="#FEDE12"/>
<path d="M22.3305 46.904L28.2797 40.4758C28.0153 40.074 27.817 39.6722 27.5525 39.2705L21.6034 45.6987C21.8678 46.1004 22.0661 46.5022 22.3305 46.904Z" fill="#FEDD11"/>
<path d="M21.6034 45.6987L27.5526 39.2705C27.2881 38.8687 27.0898 38.467 26.8915 38.0652L20.9424 44.4934C21.1407 44.8951 21.339 45.2969 21.6034 45.6987Z" fill="#FEDC11"/>
<path d="M20.9424 44.4934L26.8915 38.0652C26.6932 37.6635 26.4288 37.2617 26.2305 36.8599L20.2814 43.2881C20.4797 43.6899 20.678 44.0916 20.9424 44.4934Z" fill="#FEDB11"/>
<path d="M20.2814 43.2881L26.2305 36.8599C26.0322 36.4582 25.8339 36.0564 25.6356 35.6546L19.6864 42.0828C19.8187 42.4846 20.017 42.8864 20.2814 43.2881Z" fill="#FEDA11"/>
<path d="M19.6204 42.0828L25.5695 35.6546C25.3712 35.2529 25.1729 34.8511 24.9746 34.4493L19.0254 40.8775C19.2237 41.2793 19.422 41.6811 19.6204 42.0828Z" fill="#FED911"/>
<path d="M19.0915 40.8775L25.0407 34.4493C24.9085 34.1145 24.7102 33.7128 24.578 33.378L18.6288 39.8062C18.761 40.141 18.8932 40.4758 19.0915 40.8775Z" fill="#FED811"/>
<path d="M18.6288 39.8062L24.578 33.378C24.4458 32.9762 24.2475 32.6414 24.1153 32.2397L18.1661 38.6679C18.2983 39.0696 18.4305 39.4044 18.6288 39.8062Z" fill="#FED711"/>
<path d="M18.1661 38.6678L24.1153 32.2396C23.917 31.7709 23.7848 31.3692 23.6526 30.9004L17.7034 37.3286C17.8356 37.7974 17.9678 38.2661 18.1661 38.6678Z" fill="#FED611"/>
<path d="M17.7034 37.3286L23.6526 30.9004C23.5204 30.4987 23.3881 30.03 23.2559 29.6282L17.3068 36.0564C17.3729 36.4582 17.5051 36.9269 17.7034 37.3286Z" fill="#FED511"/>
<path d="M17.3068 36.0564L23.2559 29.6282C23.1237 29.2264 23.0576 28.8247 22.9254 28.356L16.9763 34.7841C17.0424 35.2529 17.1746 35.6546 17.3068 36.0564Z" fill="#FED411"/>
<path d="M16.9763 34.7841L22.9254 28.356C22.8593 27.9542 22.7271 27.5524 22.661 27.1507L16.7119 33.5789C16.778 33.9806 16.8441 34.3824 16.9763 34.7841Z" fill="#FED311"/>
<path d="M16.7119 33.5789L22.661 27.1507C22.5949 26.7489 22.5288 26.3471 22.4627 25.9454L16.5136 32.3736C16.5797 32.7753 16.6458 33.1771 16.7119 33.5789Z" fill="#FED211"/>
<path d="M16.5797 32.4405L22.5288 26.0123C22.4627 25.6106 22.4627 25.2088 22.4627 24.807L16.5136 31.2352C16.5136 31.637 16.5136 32.0388 16.5797 32.4405Z" fill="#FED110"/>
<path d="M16.4475 31.2353L22.3966 24.8071C22.3966 24.4053 22.3966 24.0035 22.3966 23.6687L16.4475 30.0969C16.4475 30.4317 16.4475 30.8335 16.4475 31.2353Z" fill="#FED010"/>
<path d="M16.4475 30.0969L22.3966 23.6687C22.3966 23.267 22.4627 22.8652 22.5288 22.4634L16.5797 28.8916C16.5136 29.2934 16.5136 29.6952 16.4475 30.0969Z" fill="#FECF10"/>
<path d="M16.5797 28.8916L22.5288 22.4634C22.5949 22.0617 22.661 21.6599 22.7932 21.2582L16.8441 27.6863C16.7119 28.0881 16.6458 28.4899 16.5797 28.8916Z" fill="#FECE10"/>
<path d="M16.8441 27.6863L22.7932 21.2581C22.9254 20.7894 23.0576 20.3877 23.2559 19.9859L17.3068 26.4141C17.1085 26.8159 16.9102 27.2176 16.8441 27.6863Z" fill="#FECD10"/>
<path d="M17.2407 26.4141L23.1898 19.9859C23.3881 19.5172 23.6525 19.0485 23.9831 18.5797L18.0339 25.0079C17.7034 25.4766 17.439 25.9454 17.2407 26.4141Z" fill="#FECC10"/>
<path d="M18.0339 25.0079L23.9831 18.5797C24.1814 18.3119 24.3136 18.111 24.578 17.9101L18.6288 24.3383C18.4305 24.5392 18.2322 24.8071 18.0339 25.0079Z" fill="#FECB10"/>
<path d="M71.4441 74.0899L77.3932 67.6617C77.261 67.7956 77.0627 67.9965 76.9305 68.1304C75.4763 69.4696 73.4932 70.2062 71.1136 70.3401L65.1644 76.7683C67.5441 76.6344 69.5271 75.8978 70.9813 74.5586C71.1136 74.4247 71.3119 74.2908 71.4441 74.0899Z" fill="#FECB10"/>
<path d="M65.1644 76.7683L71.1135 70.3401C70.4525 70.4071 69.7254 70.4071 68.9983 70.3401L63.0491 76.7683C63.7763 76.7683 64.5034 76.7683 65.1644 76.7683Z" fill="#FECC10"/>
<path d="M63.0492 76.7683L68.9983 70.3401C68.4034 70.2732 67.8085 70.2062 67.2136 70.1392L61.2644 76.5674C61.8593 76.6344 62.4542 76.7014 63.0492 76.7683Z" fill="#FECD10"/>
<path d="M61.2644 76.5674L67.2135 70.1392C66.6847 70.0723 66.1559 69.9384 65.561 69.8044L59.6118 76.2326C60.2068 76.3666 60.7356 76.4335 61.2644 76.5674Z" fill="#FECE10"/>
<path d="M59.678 76.2326L65.6271 69.8044C65.0983 69.6705 64.6356 69.5366 64.1068 69.4027L58.1576 75.8309C58.6203 75.9648 59.1491 76.0987 59.678 76.2326Z" fill="#FECF10"/>
<path d="M58.0915 75.8309L64.0407 69.4027C63.5779 69.2688 63.0491 69.1348 62.5203 68.934L56.5712 75.3621C57.1 75.563 57.6288 75.697 58.0915 75.8309Z" fill="#FED010"/>
<path d="M56.6373 75.3622L62.5864 68.934C62.1237 68.8 61.5949 68.5992 61.1322 68.3983L55.183 74.8265C55.6458 75.0274 56.1085 75.2282 56.6373 75.3622Z" fill="#FED110"/>
<path d="M55.1169 74.8264L61.0661 68.3983C60.6034 68.1974 60.1407 67.9965 59.6118 67.7956L53.6627 74.2238C54.1915 74.4916 54.6542 74.6925 55.1169 74.8264Z" fill="#FED211"/>
<path d="M53.7288 74.2908L59.678 67.8626C59.2152 67.6617 58.8186 67.4608 58.3559 67.2599L52.4068 73.6881C52.8034 73.889 53.2661 74.0899 53.7288 74.2908Z" fill="#FED311"/>
<path d="M71.4441 74.0899C65.4949 77.5048 51.9441 72.148 39.3187 61.1665C24.9085 48.6449 14.7288 31.637 19.1576 24.0705C24.1814 15.4326 44.3424 24.1374 60.5373 41.6811C74.2864 56.4793 78.0542 70.3401 71.4441 74.0899Z" fill="#F1B400"/>
<path d="M78.3848 80.652L84.3339 74.2238C84.5983 73.956 84.7966 73.6212 85.061 73.3533L79.1119 79.7815C78.8475 80.0494 78.6492 80.3172 78.3848 80.652Z" fill="#FECB10"/>
<path d="M79.0458 79.7146L84.9949 73.2864C85.3915 72.7507 85.722 72.148 85.9865 71.5454L80.0373 77.9736C79.7729 78.5762 79.4424 79.1789 79.0458 79.7146Z" fill="#FECC10"/>
<path d="M80.1034 77.9736L86.0525 71.5454C86.2509 71.0097 86.4492 70.474 86.5814 69.9384L80.6322 76.3666C80.5 76.9022 80.3017 77.4379 80.1034 77.9736Z" fill="#FECD10"/>
<path d="M80.6322 76.3665L86.5814 69.9384C86.7136 69.4696 86.7797 68.9339 86.9119 68.3983L80.9627 74.8265C80.8305 75.3621 80.7644 75.8978 80.6322 76.3665Z" fill="#FECE10"/>
<path d="M80.8966 74.8264L86.8458 68.3983C86.9119 67.9295 86.978 67.3938 86.978 66.9251L81.0288 73.3533C81.0288 73.889 80.9627 74.3577 80.8966 74.8264Z" fill="#FECF10"/>
<path d="M81.0288 73.3533L86.978 66.9251C86.978 66.4564 86.978 65.9877 86.978 65.452L81.0288 71.8802C81.0949 72.4159 81.0949 72.8846 81.0288 73.3533Z" fill="#FED010"/>
<path d="M81.0288 71.8802L86.978 65.452C86.978 64.9833 86.9119 64.4476 86.8458 63.9789L80.8966 70.4071C81.0288 70.9427 81.0288 71.4115 81.0288 71.8802Z" fill="#FED110"/>
<path d="M80.9627 70.4071L86.9119 63.9789C86.8458 63.5102 86.7797 62.9745 86.7136 62.5058L80.7644 68.9339C80.8305 69.4027 80.8966 69.9384 80.9627 70.4071Z" fill="#FED211"/>
<path d="M80.7644 68.934L86.7136 62.5058C86.6475 62.037 86.5153 61.5014 86.3831 60.9657L80.4339 67.3939C80.5661 67.9296 80.6322 68.3983 80.7644 68.934Z" fill="#FED311"/>
<path d="M80.4339 67.3939L86.3831 60.9657C86.2509 60.43 86.1186 59.8943 85.9864 59.4256L80.0373 65.8538C80.1695 66.3225 80.3017 66.8582 80.4339 67.3939Z" fill="#FED411"/>
<path d="M80.0373 65.7868L85.9865 59.3586C85.8542 58.8229 85.6559 58.2872 85.4576 57.7516L79.5085 64.1798C79.7068 64.7154 79.9051 65.2511 80.0373 65.7868Z" fill="#FED511"/>
<path d="M79.5085 64.1797L85.4576 57.7516C85.2593 57.2159 85.061 56.6132 84.8627 56.0775L78.9136 62.5057C79.178 63.0414 79.3763 63.6441 79.5085 64.1797Z" fill="#FED611"/>
<path d="M78.9136 62.5057L84.8627 56.0775C84.6644 55.6088 84.5322 55.1401 84.3339 54.6714L78.3848 61.0996C78.5831 61.5683 78.7814 62.037 78.9136 62.5057Z" fill="#FED711"/>
<path d="M78.3847 61.0996L84.3339 54.6714C84.1356 54.2027 83.9373 53.8009 83.739 53.3322L77.7898 59.7604C77.9881 60.2291 78.1864 60.6309 78.3847 61.0996Z" fill="#FED811"/>
<path d="M77.7898 59.7604L83.739 53.3322C83.5407 52.7965 83.2763 52.3278 83.0119 51.7921L77.0627 58.2203C77.3271 58.756 77.5254 59.2247 77.7898 59.7604Z" fill="#FED911"/>
<path d="M77.0627 58.2203L83.0119 51.7921C82.7475 51.2564 82.4831 50.7877 82.2187 50.252L76.2695 56.6802C76.5339 57.2159 76.7983 57.6846 77.0627 58.2203Z" fill="#FEDA11"/>
<path d="M76.2695 56.6802L82.2187 50.252C81.9543 49.7163 81.6898 49.2476 81.3593 48.7119L75.4102 55.1401C75.7407 55.6758 76.0051 56.1445 76.2695 56.6802Z" fill="#FEDB11"/>
<path d="M75.4763 55.1401L81.4254 48.7119C81.161 48.2432 80.8305 47.7075 80.5661 47.2388L74.6169 53.667C74.8814 54.1357 75.1458 54.6714 75.4763 55.1401Z" fill="#FEDC11"/>
<path d="M74.5508 53.667L80.5 47.2388C80.2356 46.7701 79.9051 46.2344 79.5746 45.7657L73.6254 52.1939C73.9559 52.6626 74.2864 53.1983 74.5508 53.667Z" fill="#FEDD11"/>
<path d="M73.6915 52.1938L79.6407 45.7657C79.3102 45.2969 79.0458 44.7612 78.7153 44.2925L72.7661 50.7207C73.0305 51.1894 73.361 51.6582 73.6915 52.1938Z" fill="#FEDE12"/>
<path d="M72.7 50.7207L78.6492 44.2925C78.3187 43.8238 77.9882 43.2881 77.6576 42.8194L71.7085 49.2476C72.039 49.7163 72.3695 50.1851 72.7 50.7207Z" fill="#FEDF12"/>
<path d="M71.7085 49.2476L77.6576 42.8194C77.3271 42.2837 76.9305 41.815 76.5339 41.2793L70.5847 47.7075C70.9814 48.1762 71.378 48.7119 71.7085 49.2476Z" fill="#FEE012"/>
<path d="M70.5848 47.7075L76.5339 41.2793C76.1373 40.7436 75.7407 40.208 75.3441 39.6723L69.3949 46.1005C69.8576 46.6362 70.2542 47.1718 70.5848 47.7075Z" fill="#FEE112"/>
<path d="M69.461 46.1005L75.4102 39.6723C74.9475 39.0696 74.4847 38.467 74.022 37.8643L68.0729 44.2925C68.4695 44.8952 68.9983 45.4978 69.461 46.1005Z" fill="#FEE212"/>
<path d="M68.0068 44.2925L73.9559 37.8643C73.361 37.0608 72.7 36.3243 72.039 35.5207L66.0898 41.9489C66.7509 42.7525 67.4119 43.489 68.0068 44.2925Z" fill="#FEE312"/>
<path d="M66.0898 41.9489L72.039 35.5207C70.1882 33.378 68.139 31.2353 66.0237 29.0925C65.7593 28.8247 65.4949 28.5568 65.2305 28.289L59.2814 34.7172C59.5458 34.985 59.8102 35.2529 60.0746 35.5207C62.1898 37.6634 64.239 39.8062 66.0898 41.9489Z" fill="#FEE83C"/>
<path d="M59.2153 34.7842L65.1644 28.356C64.4373 27.6864 63.7102 26.9498 62.9831 26.2802L57.0339 32.7084C57.761 33.378 58.4881 34.0476 59.2153 34.7842Z" fill="#FEE312"/>
<path d="M57.0339 32.7084L62.9831 26.2802C62.4543 25.8115 61.9254 25.3428 61.3966 24.874L55.4475 31.3022C55.9763 31.771 56.5051 32.2397 57.0339 32.7084Z" fill="#FEE212"/>
<path d="M55.3814 31.3022L61.3305 24.874C60.8678 24.4723 60.339 24.0036 59.8763 23.6018L53.9271 30.03C54.4559 30.4318 54.9186 30.9005 55.3814 31.3022Z" fill="#FEE112"/>
<path d="M53.9271 30.03L59.8763 23.6018C59.4136 23.2 58.9509 22.8652 58.5543 22.5304L52.6051 28.9586C53.0678 29.2934 53.4644 29.6952 53.9271 30.03Z" fill="#FEE012"/>
<path d="M52.6051 28.9586L58.5542 22.5304C58.0915 22.1956 57.6949 21.8608 57.2322 21.4591L51.2831 27.8872C51.6797 28.2221 52.1424 28.6238 52.6051 28.9586Z" fill="#FEDF12"/>
<path d="M51.2831 27.8872L57.2322 21.459C56.8356 21.1242 56.3729 20.7894 55.9763 20.4546L50.0271 26.8828C50.4237 27.2176 50.8204 27.5524 51.2831 27.8872Z" fill="#FEDE12"/>
<path d="M49.961 26.9498L55.9102 20.5216C55.5136 20.1868 55.0508 19.852 54.6542 19.5842L48.7051 26.0124C49.1017 26.2802 49.5644 26.615 49.961 26.9498Z" fill="#FEDD11"/>
<path d="M48.7051 26.0124L54.6542 19.5842C54.1915 19.2494 53.7949 18.9815 53.3322 18.6467L47.3831 25.0749C47.8458 25.3428 48.2424 25.6776 48.7051 26.0124Z" fill="#FEDC11"/>
<path d="M47.3831 25.0749L53.3322 18.6467C52.8695 18.3119 52.4729 18.0441 52.0102 17.7762L46.061 24.2044C46.5237 24.4723 46.9203 24.7401 47.3831 25.0749Z" fill="#FEDB11"/>
<path d="M46.061 24.1375L52.0102 17.7093C51.5475 17.3745 51.0847 17.1066 50.622 16.7718L44.6729 23.2C45.1356 23.5348 45.5983 23.8696 46.061 24.1375Z" fill="#FEDA11"/>
<path d="M44.6729 23.267L50.622 16.8388C50.1593 16.571 49.6966 16.2362 49.2339 15.9683L43.2848 22.3965C43.7475 22.6644 44.2102 22.9322 44.6729 23.267Z" fill="#FED911"/>
<path d="M43.2848 22.3965L49.2339 15.9683C48.7712 15.6335 48.2424 15.3656 47.7797 15.0978L41.8305 21.526C42.2932 21.7938 42.822 22.0617 43.2848 22.3965Z" fill="#FED811"/>
<path d="M41.8305 21.526L47.7797 15.0978C47.2509 14.83 46.7881 14.4952 46.3254 14.2273L40.3763 20.6555C40.839 20.9234 41.3017 21.1912 41.8305 21.526Z" fill="#FED711"/>
<path d="M40.3763 20.6555L46.3254 14.2273C45.7966 13.9595 45.2678 13.6247 44.739 13.3568L38.7898 19.785C39.3187 20.0529 39.8475 20.3877 40.3763 20.6555Z" fill="#FED611"/>
<path d="M38.7898 19.785L44.739 13.3568C44.2102 13.089 43.6814 12.8212 43.2187 12.5533L37.2695 18.9815C37.7322 19.2494 38.261 19.5172 38.7898 19.785Z" fill="#FED511"/>
<path d="M37.2034 19.0485L43.1526 12.6203C42.6237 12.3525 42.161 12.1516 41.6322 11.8837L35.6831 18.3119C36.2119 18.5128 36.7407 18.7807 37.2034 19.0485Z" fill="#FED411"/>
<path d="M35.7492 18.3119L41.6983 11.8837C41.1034 11.6159 40.5746 11.348 40.0458 11.1472L34.0966 17.5754C34.6254 17.7762 35.1542 18.0441 35.7492 18.3119Z" fill="#FED311"/>
<path d="M34.0305 17.5753L39.9797 11.1472C39.3848 10.8793 38.7898 10.6784 38.1949 10.4106L32.2458 16.8388C32.8407 17.1066 33.4356 17.3075 34.0305 17.5753Z" fill="#FED211"/>
<path d="M32.2458 16.8388L38.1949 10.4106C37.6 10.1428 36.939 9.94189 36.3441 9.74101L30.3949 16.1692C30.9898 16.3701 31.6509 16.6379 32.2458 16.8388Z" fill="#FED110"/>
<path d="M30.3949 16.1692L36.3441 9.741C35.6831 9.54012 35.0881 9.33923 34.4271 9.13835L28.478 15.5666C29.139 15.7674 29.7339 15.9683 30.3949 16.1692Z" fill="#FED010"/>
<path d="M28.5441 15.6335L34.4932 9.20532C33.8322 9.00444 33.1712 8.87052 32.5763 8.7366L26.6271 15.1648C27.222 15.2987 27.8831 15.4326 28.5441 15.6335Z" fill="#FECF10"/>
<path d="M26.561 15.0978L32.5102 8.66965C31.7831 8.53573 31.122 8.40181 30.461 8.26789L24.5119 14.6961C25.1729 14.83 25.9 14.9639 26.561 15.0978Z" fill="#FECE10"/>
<path d="M24.5119 14.763L30.461 8.33484C29.6678 8.20092 28.9407 8.13396 28.2136 8.067L22.2644 14.4952C22.9915 14.4952 23.7847 14.6291 24.5119 14.763Z" fill="#FECD10"/>
<path d="M22.2644 14.4952L28.2136 8.06699C27.2881 8.00003 26.4288 8.00003 25.5695 8.06699L19.6203 14.4952C20.4797 14.4282 21.339 14.4282 22.2644 14.4952Z" fill="#FECC10"/>
<path d="M19.6203 14.4282L25.5695 8.00003C22.5949 8.20092 20.0831 9.0714 18.2322 10.7454C18.0339 10.9463 17.8356 11.1472 17.6373 11.3481L11.6881 17.7762C11.8864 17.5754 12.0848 17.3745 12.2831 17.1736C14.1339 15.5666 16.6458 14.6291 19.6203 14.4282Z" fill="#FECB10"/>
<path d="M77.7898 81.1877C86.0525 73.6212 78.1203 53.1982 60.0085 35.5207C41.9627 17.9101 20.5458 9.67403 12.2831 17.2405C3.95424 24.8071 11.9525 45.23 29.9983 62.8405C48.1102 80.5181 69.5271 88.7542 77.7898 81.1877ZM19.0915 23.8696C25.6356 17.9101 42.6237 24.4053 56.9678 38.4C71.3119 52.3947 77.5915 68.5991 71.0475 74.5586C64.5034 80.5181 47.5153 74.0229 33.1712 60.0282C18.761 46.0335 12.4814 29.8291 19.0915 23.8696Z" fill="#FED110"/>
<path d="M47.7136 42.5515C45.7966 41.9489 44.0119 41.815 42.6898 42.2837L56.1746 56.0106C57.4966 55.5419 58.1576 54.5374 58.2237 53.2652L63.5119 55.8097C63.5119 56.2115 63.578 58.8899 60.1407 60.1621L68.0068 68.1974L64.3712 69.4696L55.7119 60.5639C50.7542 60.0952 44.6068 57.015 40.178 52.4617C35.6831 47.9084 34.1627 43.1542 35.8814 40.3419L27.1559 31.4361L30.7915 30.1639L38.6576 38.1991C42.0949 36.9938 45.9288 38.2661 46.5898 38.5339L47.7136 42.5515ZM43.5492 51.1894C45.7305 53.3991 48.4407 55.0062 51.0187 55.8097L40.6407 45.163C40.5746 46.904 41.4339 49.0467 43.5492 51.1894Z" fill="#CF8E00"/>
<path d="M47.3169 43.422C45.4661 42.8194 43.6814 42.6855 42.2932 43.1542L55.778 56.8811C57.1 56.4123 57.761 55.4079 57.8271 54.1357L63.1153 56.6802C63.1153 57.0819 63.1814 59.7604 59.7441 61.0326L67.6102 69.0678L63.9746 70.3401L55.3814 61.5013C50.4237 61.0326 44.2763 57.9524 39.8475 53.3991C35.3525 48.8458 33.8322 44.0916 35.5508 41.2793L26.8254 32.3736L30.461 31.1013L38.3271 39.1366C41.7644 37.9313 45.5983 39.2035 46.2593 39.4714L47.3169 43.422ZM43.2186 52.1269C45.4 54.3366 48.1102 55.9436 50.6881 56.7471L40.3102 46.1004C40.178 47.8414 41.1034 49.9841 43.2186 52.1269Z" fill="#FFCD2A"/>
</g>
<defs>
<filter id="filter0_f_76_2735" x="0.977966" y="0" width="94" height="92" filterUnits="userSpaceOnUse" color-interpolation-filters="sRGB">
<feFlood flood-opacity="0" result="BackgroundImageFix"/>
<feBlend mode="normal" in="SourceGraphic" in2="BackgroundImageFix" result="shape"/>
<feGaussianBlur stdDeviation="4" result="effect1_foregroundBlur_76_2735"/>
</filter>
<clipPath id="clip0_76_2735">
<rect width="78" height="76" fill="white" transform="matrix(1 0 0 -1 8.97797 84)"/>
</clipPath>
</defs>
</svg>
